<svg width="1860" height="1976" viewBox="0 0 1860 1976" fill="none" xmlns="http://www.w3.org/2000/svg">
<path d="M1388.28 720.72C1518.45 720.72 1636.29 773.48 1721.59 858.776C1806.89 944.076 1859.65 1061.92 1859.65 1192.08C1859.65 1322.24 1806.89 1440.09 1721.59 1525.39C1636.29 1610.69 1518.45 1663.45 1388.28 1663.45C1258.12 1663.45 1140.28 1610.69 1054.99 1525.39C1043.35 1513.76 1032.33 1501.52 1021.96 1488.73L1244.08 1943.83C1245.72 1946.89 1246.48 1950.18 1246.48 1953.45C1246.48 1957.31 1245.4 1961.14 1243.45 1964.47C1243.19 1964.94 1242.88 1965.39 1242.56 1965.81C1240.69 1968.54 1238.23 1970.9 1235.27 1972.59C1232.07 1974.42 1228.35 1975.51 1224.27 1975.51H635.814C631.734 1975.51 628 1974.42 624.8 1972.59C621.373 1970.63 618.6 1967.77 616.667 1964.47C614.693 1961.08 613.6 1957.25 613.6 1953.45C613.6 1950.18 614.36 1946.89 616 1943.83L838.747 1487.44C828.067 1500.7 816.693 1513.36 804.667 1525.39C719.373 1610.69 601.533 1663.45 471.36 1663.45C211.04 1663.45 0 1452.41 0 1192.08C0 1061.92 52.76 944.076 138.067 858.776C223.36 773.48 341.2 720.72 471.36 720.72C487.667 720.72 503.987 721.573 520.293 723.253C526.187 723.867 532.053 724.587 537.893 725.413C516.707 692.373 499.533 656.533 487.067 618.573C471.84 572.213 463.6 522.733 463.6 471.373C463.6 341.213 516.36 223.36 601.653 138.067C686.96 52.7601 804.8 0.000101474 934.96 0.000101474C1065.12 0.000101474 1182.97 52.7601 1268.27 138.067C1353.57 223.36 1406.33 341.213 1406.33 471.373C1406.33 522.213 1398.25 571.227 1383.31 617.2C1370.99 655.093 1353.97 690.92 1332.92 723.987C1337.15 723.493 1341.4 723.053 1345.67 722.667C1360.08 721.373 1374.31 720.72 1388.28 720.72Z" fill="black"/>
</svg>
