<svg width="1495" height="1927" viewBox="0 0 1495 1927" fill="none" xmlns="http://www.w3.org/2000/svg">
<path d="M747.339 0.0100025C747.566 -0.0033308 747.792 -0.0033308 748.032 0.0100025C756.125 0.210003 762.499 6.25003 762.286 13.5034C759.419 102.93 778.366 202.05 818.659 303.663C857.579 401.823 916.326 502.13 994.472 598.143C1063.9 683.45 1142.23 757.53 1224.69 818.138C1309.1 880.185 1397.73 928.038 1485.42 959.282C1492.94 961.955 1496.62 969.589 1493.63 976.33C1492.06 979.91 1488.91 982.518 1485.18 983.778L1485.19 983.798C1402.83 1011.63 1317.47 1056.85 1232.3 1120.88C1152.09 1181.18 1072.18 1258.02 995.246 1352.54C920.592 1444.28 863.632 1539.95 824.752 1633.92C784.472 1731.28 763.686 1826.59 762.806 1913.6C762.739 1920.85 756.125 1926.68 748.032 1926.63C747.805 1926.63 747.566 1926.62 747.339 1926.61C747.112 1926.62 746.872 1926.63 746.646 1926.63C738.552 1926.68 731.939 1920.85 731.872 1913.6C730.992 1826.59 710.192 1731.28 669.926 1633.92C631.046 1539.95 574.086 1444.28 499.419 1352.54C422.499 1258.02 342.592 1181.18 262.379 1120.88C177.206 1056.85 91.8457 1011.63 9.4857 983.798L9.49872 983.778C5.76539 982.518 2.61872 979.91 1.03206 976.33C-1.94128 969.589 1.72581 961.955 9.25914 959.282C96.9391 928.038 185.579 880.185 269.992 818.138C352.446 757.53 430.779 683.45 500.206 598.143C578.352 502.13 637.099 401.823 676.019 303.663C716.312 202.05 735.259 102.93 732.392 13.5034C732.166 6.25003 738.552 0.210003 746.646 0.0100025C746.872 -0.0033308 747.112 -0.0033308 747.339 0.0100025Z" fill="#EB0911"/>
</svg>
