<svg width="1906" height="1640" viewBox="0 0 1906 1640" fill="none" xmlns="http://www.w3.org/2000/svg">
<path d="M1479.95 1081.8C1291.26 1228.72 1084.06 1390.07 964.112 1632.36C962.912 1634.81 960.912 1636.9 958.272 1638.2C951.899 1641.35 944.179 1638.73 941.032 1632.36C820.076 1388.03 612.697 1227.5 424.169 1081.57C198.861 907.16 0 753.227 0 500.52C0 362.307 56.0227 237.173 146.599 146.6C237.173 56.0266 362.303 -4.87604e-05 500.515 -4.87604e-05C602.42 -4.87604e-05 697.264 30.52 776.764 82.76C851.452 131.853 912.525 200.107 953.099 280.227C993.819 199.76 1054.71 131.6 1129.03 82.6399C1208.39 30.3466 1303.01 -4.87604e-05 1404.63 -4.87604e-05C1542.85 -4.87604e-05 1667.97 56.0266 1758.54 146.6C1849.13 237.173 1905.14 362.307 1905.14 500.52C1905.14 750.723 1705.55 906.135 1479.95 1081.8Z" fill="#EB0911"/>
</svg>
