<svg width="1793" height="1919" viewBox="0 0 1793 1919" fill="none" xmlns="http://www.w3.org/2000/svg">
<path d="M890.027 1.32693C892.08 0.313596 894.267 -0.0998417 896.4 0.0201583C898.533 -0.0998417 900.72 0.313596 902.773 1.32693C909.173 4.48693 909.32 11.2869 912.213 16.9402C1058.48 303.954 1308.45 482.767 1532.25 642.807C1554.13 658.46 1575.79 673.94 1593.93 687.047C1615.64 702.447 1635.97 719.634 1654.75 738.394C1740.04 823.698 1792.8 941.54 1792.8 1071.7C1792.8 1201.87 1740.04 1319.71 1654.75 1405.01C1569.44 1490.31 1451.6 1543.07 1321.44 1543.07C1191.27 1543.07 1073.43 1490.31 988.133 1405.01C980.68 1397.56 973.48 1389.87 966.546 1381.94L1213.03 1886.96C1220.68 1901.28 1209.27 1918.64 1193.21 1918.64H604.76C588.88 1918.64 577.213 1901.42 584.946 1886.96L838.586 1367.24C827.96 1380.43 816.64 1393.04 804.68 1405.01C719.373 1490.31 601.533 1543.07 471.373 1543.07C341.2 1543.07 223.36 1490.31 138.067 1405.01C52.76 1319.71 0 1201.87 0 1071.7C0 941.54 52.76 823.698 138.067 738.394C156.827 719.634 177.16 702.447 198.853 687.047C217.013 673.94 238.666 658.46 260.546 642.807C484.413 482.714 734.466 303.86 880.72 16.7004C883.573 11.1004 883.667 4.4736 890.027 1.32693Z" fill="black"/>
</svg>
